# xmcd CD database file
#
# Track frame offsets:
#	182
#	10045
#	20557
#	34745
#	47770
#	61745
#	75745
#	87595
#	98795
#	112157
#	123057
#	132845
#	142120
#	151345
#	162745
#	172682
#	190445
#	206820
#	219407
#	227345
#	242270
#	257470
#	267370
#	282057
#	291657
#	303620
#	315257
#
# Disc length: 4349 seconds
#
# Revision: 0
# Processed by: cddbd v1.4PL0 Copyright (c) Steve Scherf et al.
# Submitted via: CDex 1.50
#
DISCID=7710fb1b
DTITLE=Buddy Guy - Chess Masters
DYEAR=1900
DGENRE=Blues
TTITLE0=First Time I Met The Blues
TTITLE1=I Got Eyes On You
TTITLE2=Broken Hearts Blues
TTITLE3=Let Me Love You Baby
TTITLE4=I Got A Strange Feeling
TTITLE5=Hully Gully
TTITLE6=10 Years Ago
TTITLE7=Watch Yourself
TTITLE8=Stone Crazy
TTITLE9=Hard But Fair
TTITLE10=Baby
TTITLE11=Treasure Untold
TTITLE12=Band Stand
TTITLE13=No Lie
TTITLE14=100 Dollar Bill
TTITLE15=Stick Around
TTITLE16=Moanin
TTITLE17=When My Left Eye Jumps
TTITLE18=I Dig Your Wig
TTITLE19=My Time After A While
TTITLE20=Leave My Girl Alone
TTITLE21=You Got Thouse Your Head
TTITLE22=I Found A True Love
TTITLE23=Slop Around
TTITLE24=Buddy's Boogie
TTITLE25=My Mother
TTITLE26=She Suits Me To A Tree
EXTD=
EXTT0=
EXTT1=
EXTT2=
EXTT3=
EXTT4=
EXTT5=
EXTT6=
EXTT7=
EXTT8=
EXTT9=
EXTT10=
EXTT11=
EXTT12=
EXTT13=
EXTT14=
EXTT15=
EXTT16=
EXTT17=
EXTT18=
EXTT19=
EXTT20=
EXTT21=
EXTT22=
EXTT23=
EXTT24=
EXTT25=
EXTT26=
PLAYORDER=
